<svg preserveAspectRatio="none" width="100%" height="100%" overflow="visible" style="display: block;" viewBox="0 0 38 38" fill="none" xmlns="http://www.w3.org/2000/svg">
<g id="Group 880">
<circle id="Ellipse 7" cx="19" cy="19" r="18" stroke="url(#paint0_linear_0_19)" stroke-width="2"/>
<g id="Group">
<path id="Vector" d="M15.9556 16.8643C14.6835 16.8643 13.6484 18.0045 13.6484 19.4061C13.6484 20.8076 14.6835 21.9479 15.9556 21.9479C17.2279 21.9479 18.2629 20.8076 18.2629 19.4061C18.2629 18.0045 17.2279 16.8643 15.9556 16.8643ZM15.9556 20.6588C15.3943 20.6588 14.9375 20.0968 14.9375 19.4061C14.9375 18.7153 15.3943 18.1533 15.9556 18.1533C16.5171 18.1533 16.9739 18.7153 16.9739 19.4061C16.9739 20.0968 16.5171 20.6588 15.9556 20.6588Z" fill="var(--fill-0, white)" fill-opacity="0.5"/>
<path id="Vector_2" d="M22.0454 16.8641C20.7732 16.8641 19.7381 18.0044 19.7381 19.4059C19.7381 20.8075 20.7732 21.9477 22.0454 21.9477C23.3176 21.9477 24.3526 20.8075 24.3526 19.4059C24.3526 18.0044 23.3176 16.8641 22.0454 16.8641ZM22.0454 20.6587C21.484 20.6587 21.0272 20.0967 21.0272 19.4059C21.0272 18.7152 21.484 18.1532 22.0454 18.1532C22.6068 18.1532 23.0635 18.7152 23.0635 19.4059C23.0635 20.0967 22.6068 20.6587 22.0454 20.6587Z" fill="var(--fill-0, white)" fill-opacity="0.5"/>
<path id="Vector_3" d="M29.999 23.7147C29.9838 23.4422 29.5984 16.9962 27.1506 13.1402C27.1005 13.0614 27.0339 12.9943 26.9554 12.9438C23.9286 10.9948 21.867 11.0003 21.7807 11C21.5307 11.0033 21.3154 11.1487 21.2113 11.3588L20.1715 13.3515C19.7842 13.3261 19.3932 13.313 19 13.313C18.6069 13.313 18.2158 13.3261 17.8285 13.3515L16.7899 11.3612C16.6863 11.1498 16.4703 11.0034 16.2193 11C16.1325 10.9995 14.0711 10.995 11.0447 12.9438C10.9662 12.9944 10.8996 13.0614 10.8495 13.1403C8.40169 16.9962 8.01621 23.4422 8.001 23.7147C7.99146 23.8855 8.05025 24.0532 8.16441 24.1807C8.27794 24.3073 10.9746 27.2705 14.702 27.2705C14.7187 27.2705 14.7358 27.2704 14.7525 27.2703C14.9484 27.2689 15.133 27.1785 15.2542 27.0247L16.9735 24.8428C17.6339 24.9182 18.3121 24.9575 19 24.9575C19.6879 24.9575 20.3662 24.9182 21.0265 24.8428L22.7458 27.0247C22.867 27.1785 23.0516 27.2689 23.2475 27.2703C23.2644 27.2704 23.2811 27.2705 23.298 27.2705C27.0251 27.2705 29.7222 24.3073 29.8356 24.1807C29.9497 24.0532 30.0085 23.8855 29.999 23.7147ZM23.5601 25.9754L22.4852 24.6112C24.1215 24.2746 25.5901 23.7018 26.7364 22.9327C27.0321 22.7344 27.1109 22.334 26.9126 22.0384C26.7143 21.7428 26.3138 21.6638 26.0183 21.8622C24.3074 23.0101 21.7493 23.6684 19 23.6684C16.2509 23.6684 13.6928 23.0101 11.9817 21.8624C11.686 21.6641 11.2857 21.743 11.0874 22.0386C10.8891 22.3342 10.968 22.7346 11.2636 22.9329C12.41 23.7019 13.8786 24.2747 15.5148 24.6112L14.44 25.9753C11.9163 25.8582 9.90791 24.0934 9.3082 23.5077C9.40831 22.2588 9.92781 17.108 11.8632 13.9507C13.7638 12.751 15.198 12.4173 15.8386 12.3246L16.4502 13.4964C15.0124 13.7063 13.6654 14.0922 12.518 14.6324C12.1959 14.784 12.0578 15.168 12.2094 15.4901C12.361 15.8121 12.745 15.9502 13.067 15.7987C14.7061 15.027 16.8132 14.602 19 14.602C21.187 14.602 23.2941 15.0271 24.9331 15.7988C25.0218 15.8406 25.1152 15.8604 25.2072 15.8604C25.449 15.8604 25.6809 15.7236 25.7908 15.4903C25.9424 15.1683 25.8042 14.7842 25.4822 14.6326C24.3347 14.0923 22.9877 13.7064 21.5498 13.4965L22.1613 12.3247C22.8019 12.4174 24.2362 12.7511 26.1368 13.9507C28.0701 17.1048 28.5913 22.261 28.6918 23.5089C28.0936 24.0958 26.0942 25.8592 23.5601 25.9754Z" fill="var(--fill-0, white)" fill-opacity="0.5"/>
</g>
</g>
<defs>
<linearGradient id="paint0_linear_0_19" x1="19" y1="-5.5" x2="19" y2="30" gradientUnits="userSpaceOnUse">
<stop stop-color="white"/>
<stop offset="1" stop-color="#999999" stop-opacity="0"/>
</linearGradient>
</defs>
</svg>
