<svg preserveAspectRatio="none" width="100%" height="100%" overflow="visible" style="display: block;" viewBox="0 0 38 38" fill="none" xmlns="http://www.w3.org/2000/svg">
<g id="Group 879">
<circle id="Ellipse 7" cx="19" cy="19" r="18" stroke="url(#paint0_linear_0_27)" stroke-width="2"/>
<g id="Group">
<path id="Vector" d="M23.0325 10H14.9672C12.2283 10 10 12.2284 10 14.9673V23.0327C10 25.7717 12.2283 28 14.9672 28H23.0325C25.7717 28 28 25.7716 28 23.0327V14.9673C28.0001 12.2284 25.7717 10 23.0325 10ZM26.4031 23.0327C26.4031 24.8911 24.8911 26.403 23.0327 26.403H14.9672C13.1089 26.4031 11.597 24.8911 11.597 23.0327V14.9673C11.597 13.109 13.1089 11.597 14.9672 11.597H23.0325C24.891 11.597 26.403 13.109 26.403 14.9673V23.0327H26.4031Z" fill="var(--fill-0, white)" fill-opacity="0.5"/>
<path id="Vector_2" d="M19.0014 14.3623C16.4439 14.3623 14.3633 16.4429 14.3633 19.0004C14.3633 21.5579 16.4439 23.6384 19.0014 23.6384C21.5589 23.6384 23.6396 21.5579 23.6396 19.0004C23.6396 16.4429 21.5589 14.3623 19.0014 14.3623ZM19.0014 22.0412C17.3246 22.0412 15.9603 20.6771 15.9603 19.0003C15.9603 17.3234 17.3245 15.9592 19.0014 15.9592C20.6783 15.9592 22.0425 17.3234 22.0425 19.0003C22.0425 20.6771 20.6782 22.0412 19.0014 22.0412Z" fill="var(--fill-0, white)" fill-opacity="0.5"/>
<path id="Vector_3" d="M23.8313 13.0078C23.5236 13.0078 23.2214 13.1324 23.0041 13.3506C22.7857 13.5678 22.6602 13.8702 22.6602 14.179C22.6602 14.4868 22.7858 14.7891 23.0041 15.0073C23.2213 15.2245 23.5236 15.3501 23.8313 15.3501C24.1401 15.3501 24.4414 15.2245 24.6597 15.0073C24.8779 14.7891 25.0025 14.4867 25.0025 14.179C25.0025 13.8702 24.8779 13.5678 24.6597 13.3506C24.4425 13.1324 24.1401 13.0078 23.8313 13.0078Z" fill="var(--fill-0, white)" fill-opacity="0.5"/>
</g>
</g>
<defs>
<linearGradient id="paint0_linear_0_27" x1="19" y1="-5.5" x2="19" y2="30" gradientUnits="userSpaceOnUse">
<stop stop-color="white"/>
<stop offset="1" stop-color="#999999" stop-opacity="0"/>
</linearGradient>
</defs>
</svg>
