<svg preserveAspectRatio="none" width="100%" height="100%" overflow="visible" style="display: block;" viewBox="0 0 246 165" fill="none" xmlns="http://www.w3.org/2000/svg">
<path id="Vector" d="M19.3519 4.87123C19.309 3.21493 17.9316 1.90695 16.2753 1.94978C14.619 1.9926 13.311 3.37002 13.3539 5.02632L16.3529 4.94877L19.3519 4.87123ZM150.179 73.7973L151.791 71.2667L151.79 71.2663L150.179 73.7973ZM82.1339 129.365L85.0131 128.522L85.013 128.522L82.1339 129.365ZM245.476 114.26C246.411 112.893 246.062 111.026 244.695 110.09C243.327 109.154 241.46 109.504 240.524 110.871L243 112.566L245.476 114.26ZM0.692538 16.9258C-0.366297 18.2002 -0.191567 20.0916 1.08281 21.1505C2.35719 22.2093 4.24863 22.0346 5.30746 20.7602L3 18.843L0.692538 16.9258ZM16.1634 3L17.7709 0.467014C16.4968 -0.341568 14.8203 -0.0778739 13.8559 1.08281L16.1634 3ZM32.5287 16.4224C34.0121 17.1604 35.8129 16.5562 36.5509 15.0728C37.289 13.5893 36.6847 11.7885 35.2013 11.0505L33.865 13.7365L32.5287 16.4224ZM16.3529 4.94877C13.3539 5.02632 13.3539 5.0276 13.3539 5.02925C13.354 5.03029 13.354 5.03231 13.3541 5.0344C13.3542 5.03857 13.3544 5.04422 13.3546 5.05133C13.355 5.06554 13.3555 5.08562 13.3563 5.11146C13.3579 5.16316 13.3604 5.23794 13.3638 5.33514C13.3708 5.52955 13.382 5.81368 13.3991 6.18219C13.4333 6.91918 13.4913 7.99398 13.5867 9.36389C13.7774 12.1032 14.1181 16.0256 14.7188 20.789C15.919 30.3069 18.1627 43.2277 22.3434 56.7964C30.6505 83.7572 46.901 114.184 78.7651 124.496L79.6888 121.642L80.6126 118.788C51.6489 109.414 36.2314 81.4939 28.0774 55.0297C24.0276 41.8859 21.8426 29.3245 20.6716 20.0384C20.0867 15.3998 19.7562 11.5898 19.5722 8.94709C19.4802 7.62602 19.4249 6.59746 19.3927 5.90383C19.3766 5.55705 19.3662 5.29405 19.36 5.12017C19.3569 5.03323 19.3548 4.96857 19.3535 4.92686C19.3529 4.906 19.3524 4.89088 19.3522 4.88158C19.352 4.87693 19.3519 4.87374 19.3519 4.87201C19.3519 4.87115 19.3519 4.87095 19.3518 4.87052C19.3519 4.87069 19.3519 4.87123 16.3529 4.94877ZM79.6888 121.642L78.7651 124.496C110.156 134.656 134.69 126.153 148.429 112.714C155.247 106.045 159.48 98.0721 160.359 90.5402C161.25 82.9087 158.658 75.6392 151.791 71.2667L150.179 73.7973L148.568 76.3279C153.15 79.2454 155.075 84.0622 154.4 89.8445C153.713 95.7264 150.297 102.494 144.234 108.425C132.21 120.185 110.049 128.315 80.6126 118.788L79.6888 121.642ZM150.179 73.7973L151.79 71.2663C145.287 67.1282 136.573 65.9442 127.674 66.9746C118.725 68.0109 109.26 71.3172 100.981 76.577C84.3896 87.1177 72.135 105.894 79.2547 130.208L82.1339 129.365L85.013 128.522C78.852 107.482 89.171 91.1885 104.198 81.6413C111.729 76.8571 120.333 73.8648 128.365 72.9348C136.446 71.9989 143.623 73.181 148.569 76.3283L150.179 73.7973ZM82.1339 129.365L79.2546 130.208C82.8968 142.652 92.7752 151.715 105.696 157.347C118.614 162.978 134.822 165.313 151.805 164.235C185.727 162.081 223.59 146.233 245.476 114.26L243 112.566L240.524 110.871C219.933 140.953 183.999 156.178 151.425 158.247C135.16 159.279 119.946 157.013 108.094 151.847C96.245 146.682 88.0068 138.751 85.0131 128.522L82.1339 129.365ZM3 18.843L5.30746 20.7602L18.4709 4.91719L16.1634 3L13.8559 1.08281L0.692538 16.9258L3 18.843ZM16.1634 3C14.5559 5.53299 14.556 5.53304 14.5562 5.53313C14.5563 5.5332 14.5565 5.53332 14.5567 5.53347C14.5572 5.53377 14.5579 5.53421 14.5588 5.53477C14.5605 5.53591 14.5632 5.53758 14.5667 5.53979C14.5736 5.5442 14.5839 5.55073 14.5974 5.55931C14.6245 5.57649 14.6646 5.60191 14.717 5.63508C14.8217 5.70141 14.9755 5.79874 15.1723 5.92315C15.5659 6.17195 16.1318 6.52913 16.822 6.96327C18.2021 7.83132 20.0812 9.00824 22.0752 10.2425C25.9918 12.6667 30.5598 15.4429 32.5287 16.4224L33.865 13.7365L35.2013 11.0505C33.5432 10.2256 29.2604 7.63353 25.233 5.14068C23.255 3.91633 21.3887 2.74747 20.0165 1.88437C19.3306 1.45294 18.7685 1.09821 18.3783 0.851497C18.1831 0.728147 18.031 0.631817 17.9277 0.566427C17.8761 0.533732 17.8367 0.508774 17.8103 0.492041C17.7972 0.483675 17.7872 0.477366 17.7806 0.473174C17.7773 0.471078 17.7748 0.469512 17.7732 0.468482C17.7724 0.467968 17.7718 0.467587 17.7714 0.467342C17.7712 0.46722 17.7711 0.467138 17.771 0.467076C17.7709 0.467028 17.7709 0.467014 16.1634 3Z" fill="var(--stroke-0, #9E77ED)"/>
</svg>
