<?xml version="1.0" encoding="UTF-8"?>
<svg width="48" height="48" viewBox="0 0 48 48" fill="none" xmlns="http://www.w3.org/2000/svg">
  <rect x="21" y="21" width="7" height="7" rx="1.5" fill="#0A0D12"/>
  <rect x="21" y="27" width="7" height="7" rx="1.5" fill="#0A0D12" fill-opacity="0.6"/>
  <rect x="27" y="27" width="7" height="7" rx="1.5" fill="#0A0D12" fill-opacity="0.32"/>
  <rect x="34" y="27" width="7" height="7" rx="1.5" fill="#0A0D12" fill-opacity="0.07"/>
  <rect x="14" y="27" width="7" height="7" rx="1.5" fill="#0A0D12" fill-opacity="0.32"/>
  <rect x="7" y="27" width="7" height="7" rx="1.5" fill="#0A0D12" fill-opacity="0.07"/>
  <rect x="21" y="34" width="7" height="7" rx="1.5" fill="#0A0D12" fill-opacity="0.32"/>
  <rect x="14" y="34" width="7" height="7" rx="1.5" fill="#0A0D12" fill-opacity="0.07"/>
  <rect x="27" y="34" width="7" height="7" rx="1.5" fill="#0A0D12" fill-opacity="0.07"/>
  <rect x="21" y="41" width="7" height="7" rx="1.5" fill="#0A0D12" fill-opacity="0.07"/>
  <rect x="14" y="21" width="7" height="7" rx="1.5" fill="#0A0D12" fill-opacity="0.6"/>
  <rect x="7" y="21" width="7" height="7" rx="1.5" fill="#0A0D12" fill-opacity="0.32"/>
  <rect y="21" width="7" height="7" rx="1.5" fill="#0A0D12" fill-opacity="0.07"/>
  <rect x="27" y="21" width="7" height="7" rx="1.5" fill="#0A0D12" fill-opacity="0.6"/>
  <rect x="34" y="21" width="7" height="7" rx="1.5" fill="#0A0D12" fill-opacity="0.32"/>
  <rect x="41" y="21" width="7" height="7" rx="1.5" fill="#0A0D12" fill-opacity="0.07"/>
  <rect x="21" y="14" width="7" height="7" rx="1.5" fill="#0A0D12" fill-opacity="0.6"/>
  <rect x="14" y="14" width="7" height="7" rx="1.5" fill="#0A0D12" fill-opacity="0.32"/>
  <rect x="14" y="7" width="7" height="7" rx="1.5" fill="#0A0D12" fill-opacity="0.07"/>
  <rect x="7" y="14" width="7" height="7" rx="1.5" fill="#0A0D12" fill-opacity="0.07"/>
  <rect x="27" y="14" width="7" height="7" rx="1.5" fill="#0A0D12" fill-opacity="0.32"/>
  <rect x="27" y="7" width="7" height="7" rx="1.5" fill="#0A0D12" fill-opacity="0.07"/>
  <rect x="34" y="14" width="7" height="7" rx="1.5" fill="#0A0D12" fill-opacity="0.07"/>
  <rect x="21" y="7" width="7" height="7" rx="1.5" fill="#0A0D12" fill-opacity="0.32"/>
  <rect x="21" width="7" height="7" rx="1.5" fill="#0A0D12" fill-opacity="0.07"/>
</svg>
