<?xml version="1.0" encoding="UTF-8"?>
<svg width="48" height="48" viewBox="0 0 48 48" fill="none" xmlns="http://www.w3.org/2000/svg">
  <defs>
    <linearGradient id="logogradient" x1="24" y1="0" x2="24" y2="48" gradientUnits="userSpaceOnUse">
      <stop offset="0%" stop-color="white" stop-opacity="0" />
      <stop offset="100%" stop-color="white" stop-opacity="0.12" />
    </linearGradient>
  </defs>
  <rect width="48" height="48" rx="12" fill="#0A0D12" />
  <rect width="48" height="48" rx="12" fill="url(#logogradient)" />
  <rect x="1" y="1" width="46" height="46" rx="11" stroke="white" stroke-opacity="0.12" stroke-width="2" fill="none" />
  <rect x="21" y="21" width="7" height="7" rx="1.5" fill="white"/>
  <rect x="21" y="27" width="7" height="7" rx="1.5" fill="white" fill-opacity="0.6"/>
  <rect x="27" y="27" width="7" height="7" rx="1.5" fill="white" fill-opacity="0.32"/>
  <rect x="34" y="27" width="7" height="7" rx="1.5" fill="white" fill-opacity="0.07"/>
  <rect x="14" y="27" width="7" height="7" rx="1.5" fill="white" fill-opacity="0.32"/>
  <rect x="7" y="27" width="7" height="7" rx="1.5" fill="white" fill-opacity="0.07"/>
  <rect x="21" y="34" width="7" height="7" rx="1.5" fill="white" fill-opacity="0.32"/>
  <rect x="14" y="34" width="7" height="7" rx="1.5" fill="white" fill-opacity="0.07"/>
  <rect x="27" y="34" width="7" height="7" rx="1.5" fill="white" fill-opacity="0.07"/>
  <rect x="21" y="41" width="7" height="7" rx="1.5" fill="white" fill-opacity="0.07"/>
  <rect x="14" y="21" width="7" height="7" rx="1.5" fill="white" fill-opacity="0.6"/>
  <rect x="7" y="21" width="7" height="7" rx="1.5" fill="white" fill-opacity="0.32"/>
  <rect y="21" width="7" height="7" rx="1.5" fill="white" fill-opacity="0.07"/>
  <rect x="27" y="21" width="7" height="7" rx="1.5" fill="white" fill-opacity="0.6"/>
  <rect x="34" y="21" width="7" height="7" rx="1.5" fill="white" fill-opacity="0.32"/>
  <rect x="41" y="21" width="7" height="7" rx="1.5" fill="white" fill-opacity="0.07"/>
  <rect x="21" y="14" width="7" height="7" rx="1.5" fill="white" fill-opacity="0.6"/>
  <rect x="14" y="14" width="7" height="7" rx="1.5" fill="white" fill-opacity="0.32"/>
  <rect x="14" y="7" width="7" height="7" rx="1.5" fill="white" fill-opacity="0.07"/>
  <rect x="7" y="14" width="7" height="7" rx="1.5" fill="white" fill-opacity="0.07"/>
  <rect x="27" y="14" width="7" height="7" rx="1.5" fill="white" fill-opacity="0.32"/>
  <rect x="27" y="7" width="7" height="7" rx="1.5" fill="white" fill-opacity="0.07"/>
  <rect x="34" y="14" width="7" height="7" rx="1.5" fill="white" fill-opacity="0.07"/>
  <rect x="21" y="7" width="7" height="7" rx="1.5" fill="white" fill-opacity="0.32"/>
  <rect x="21" width="7" height="7" rx="1.5" fill="white" fill-opacity="0.07"/>
</svg>
