<svg width="64" height="64" viewBox="0 0 64 64" fill="none" xmlns="http://www.w3.org/2000/svg">
  <rect width="64" height="64" rx="16" fill="#3B82F6"/>
  <path d="M32 12C20.9543 12 12 20.9543 12 32C12 43.0457 20.9543 52 32 52C43.0457 52 52 43.0457 52 32C52 20.9543 43.0457 12 32 12Z" fill="white" fill-opacity="0.2"/>
  <path d="M32 16C22.0589 16 14 24.0589 14 34C14 43.9411 22.0589 52 32 52C41.9411 52 50 43.9411 50 34C50 24.0589 41.9411 16 32 16Z" fill="white"/>
  <path d="M32 20C24.268 20 18 26.268 18 34C18 41.732 24.268 48 32 48C39.732 48 46 41.732 46 34C46 26.268 39.732 20 32 20Z" fill="#3B82F6"/>
  <path d="M28 30L32 34L40 26" stroke="white" stroke-width="2" stroke-linecap="round" stroke-linejoin="round"/>
  <circle cx="32" cy="34" r="2" fill="white"/>
</svg>
